<svg viewBox="0 0 1000 460" xmlns="http://www.w3.org/2000/svg" style="width:100%;height:auto;display:block">
<style>text{font-family:'Inter','Helvetica Neue',Arial,sans-serif;}</style>
<rect x="0" y="0" width="1000" height="460" fill="#ffffff"/>
<line x1="64" y1="323.6" x2="980" y2="323.6" stroke="#e7ede9" stroke-width="1"/>
<text x="52" y="327.6" text-anchor="end" font-size="13" fill="#5d6b65">0.2</text>
<line x1="64" y1="241.3" x2="980" y2="241.3" stroke="#e7ede9" stroke-width="1"/>
<text x="52" y="245.3" text-anchor="end" font-size="13" fill="#5d6b65">0.4</text>
<line x1="64" y1="158.9" x2="980" y2="158.9" stroke="#e7ede9" stroke-width="1"/>
<text x="52" y="162.9" text-anchor="end" font-size="13" fill="#5d6b65">0.6</text>
<line x1="64" y1="76.6" x2="980" y2="76.6" stroke="#e7ede9" stroke-width="1"/>
<text x="52" y="80.6" text-anchor="end" font-size="13" fill="#5d6b65">0.8</text>
<line x1="64" y1="406.0" x2="980" y2="406.0" stroke="#dfe6e2" stroke-width="1.5"/>
<text x="288.9" y="430" text-anchor="middle" font-size="13" fill="#5d6b65">Jul 23</text>
<text x="521.4" y="430" text-anchor="middle" font-size="13" fill="#5d6b65">Jan 24</text>
<text x="751.3" y="430" text-anchor="middle" font-size="13" fill="#5d6b65">Jul 24</text>
<text x="20" y="231" text-anchor="middle" font-size="13" fill="#5d6b65" transform="rotate(-90 20 231)">Greenness  (0 = bare, 1 = lush)</text>
<polyline points="64.0,126.0 70.3,119.4 76.6,109.4 83.0,122.3 89.3,127.3 95.6,134.1 101.9,132.8 108.2,135.9 114.5,130.1 120.9,132.7 127.2,137.3 133.5,167.6 139.8,225.6 146.1,163.2 158.8,130.0 165.1,127.9 171.4,159.2 177.7,144.5 184.0,150.2 196.7,155.1 215.6,144.9 228.2,147.9 234.6,151.5 240.9,163.3 247.2,162.0 253.5,177.5 411.4,249.7 417.8,125.5 424.1,106.3 430.4,230.6 443.0,190.6 462.0,108.7 468.3,113.4 493.6,114.6 499.9,105.7 512.5,101.7 518.8,103.8 525.2,79.9 537.8,110.5 544.1,114.0 563.1,125.9 569.4,120.3 582.0,126.2 588.3,124.6 594.6,182.7 601.0,128.1 607.3,133.8 613.6,147.5 619.9,135.1 626.2,163.7 638.9,173.8 645.2,148.6 651.5,148.7 657.8,176.0 664.1,155.3 670.5,161.4 676.8,165.3 683.1,172.1 689.4,153.0 695.7,152.8 702.0,192.3 708.4,185.9 872.6,157.0 897.9,102.4 904.2,111.0 910.5,100.1 916.8,96.7 923.1,105.9 929.5,107.3 935.8,108.2 942.1,116.1 961.0,119.9 967.4,114.2 980.0,136.6" fill="none" stroke="#0f6b45" stroke-width="2.4" stroke-linejoin="round" stroke-linecap="round"/>
<polyline points="64.0,341.3 70.3,319.4 76.6,325.6 83.0,334.8 89.3,335.3 95.6,332.4 101.9,316.6 108.2,323.3 114.5,324.1 120.9,324.3 127.2,318.7 133.5,335.2 139.8,346.9 146.1,324.2 158.8,307.2 165.1,305.5 177.7,309.9 184.0,313.8 196.7,306.2 203.0,309.7 228.2,310.4 234.6,314.3 240.9,312.0 247.2,318.2 253.5,312.8 259.8,312.9 411.4,293.1 417.8,292.2 430.4,302.8 443.0,295.8 462.0,299.4 468.3,300.4 480.9,370.8 493.6,307.6 499.9,309.8 512.5,315.4 518.8,324.8 525.2,366.6 537.8,309.0 544.1,318.1 556.7,316.9 563.1,318.0 569.4,303.1 575.7,336.2 582.0,323.4 588.3,319.1 594.6,318.3 601.0,309.6 607.3,310.3 613.6,308.1 619.9,315.0 626.2,316.1 638.9,319.1 645.2,308.4 651.5,312.2 657.8,298.0 664.1,306.2 670.5,305.8 676.8,305.2 683.1,310.7 689.4,306.0 695.7,300.5 708.4,310.9 714.7,307.8 866.3,302.2 872.6,297.6 897.9,292.0 904.2,292.2 910.5,299.8 916.8,311.4 923.1,317.3 929.5,307.0 935.8,306.5 942.1,309.0 961.0,310.1 967.4,320.3 980.0,344.7" fill="none" stroke="#9aa6a0" stroke-width="2.4" stroke-linejoin="round" stroke-linecap="round"/>
<polyline points="64.0,334.0 70.3,314.2 76.6,316.5 83.0,324.1 89.3,331.3 95.6,322.0 101.9,319.2 108.2,324.2 114.5,328.1 120.9,329.0 127.2,330.8 133.5,338.5 139.8,352.2 146.1,339.3 158.8,327.0 165.1,326.5 177.7,333.4 184.0,335.3 196.7,327.5 203.0,333.0 228.2,332.8 234.6,334.7 240.9,336.1 247.2,340.0 253.5,331.2 259.8,323.2 411.4,270.7 417.8,284.1 430.4,307.0 443.0,296.4 462.0,300.8 468.3,308.1 480.9,364.4 493.6,313.0 499.9,314.9 512.5,326.2 518.8,332.0 525.2,356.8 537.8,317.6 544.1,325.8 556.7,330.2 563.1,333.4 569.4,336.3 575.7,333.9 582.0,335.8 588.3,331.8 594.6,343.0 601.0,329.8 607.3,336.2 613.6,333.3 619.9,338.9 626.2,348.2 638.9,344.3 645.2,337.2 651.5,336.5 657.8,333.9 664.1,333.4 670.5,333.7 676.8,333.1 683.1,339.3 689.4,323.4 695.7,319.2 702.0,321.3 708.4,332.9 714.7,336.2 866.3,274.5 872.6,325.2 897.9,289.5 904.2,292.7 910.5,309.7 916.8,317.4 923.1,325.6 929.5,318.5 935.8,352.7 942.1,318.8 961.0,318.3 967.4,329.5 980.0,348.9" fill="none" stroke="#d99a2b" stroke-width="2.4" stroke-linejoin="round" stroke-linecap="round"/>
<circle cx="70" cy="22" r="6" fill="#0f6b45"/>
<text x="84" y="27" font-size="15" font-weight="600" fill="#11231c">Dense forest · avg 0.65</text>
<circle cx="366" cy="22" r="6" fill="#9aa6a0"/>
<text x="380" y="27" font-size="15" font-weight="600" fill="#11231c">City centre · avg 0.22</text>
<circle cx="666" cy="22" r="6" fill="#d99a2b"/>
<text x="680" y="27" font-size="15" font-weight="600" fill="#11231c">Sparse plot · avg 0.19</text>
</svg>